<svg width="107" height="51" fill="none" xmlns="http://www.w3.org/2000/svg"><g clip-path="url(#a)"><mask id="b" style="mask-type:luminance" maskUnits="userSpaceOnUse" x="0" y="0" width="107" height="51"><path d="M107 0H0v51h107V0z" fill="#fff"/></mask><g mask="url(#b)"><path fill-rule="evenodd" clip-rule="evenodd" d="m32.896 29.707-4.32 7.807h8.718l-4.398-7.807z" fill="#DA272A"/><path fill-rule="evenodd" clip-rule="evenodd" d="M32.516 13.63 28.422 0l-5.458 6.02 9.552 7.61z" fill="#1EA243"/><path fill-rule="evenodd" clip-rule="evenodd" d="M32.517 13.63 28.423 0l-1.36 5.737 5.454 7.892z" fill="#69B037"/><path fill-rule="evenodd" clip-rule="evenodd" d="M27.06 5.737 28.42 0l-5.456 6.02 4.097-.283z" fill="#42A93C"/><path fill-rule="evenodd" clip-rule="evenodd" d="m32.897 29.707.752 6.217 3.645 1.59-4.397-7.807z" fill="#E64B4E"/><path fill-rule="evenodd" clip-rule="evenodd" d="m33.649 35.924-5.073 1.59h8.718l-3.645-1.59z" fill="#C92628"/><path fill-rule="evenodd" clip-rule="evenodd" d="m25.502 18.293.972 7.812 5.142-9.174a20.283 20.283 0 0 0-4.806-2.461l-1.308 3.823z" fill="#DB2A28"/><path fill-rule="evenodd" clip-rule="evenodd" d="M19.476 13.219c-6.248 0-11.806 2.568-15.37 6.559l6.98.763 5.495-7.136 8.924 4.886 1.308-3.824a21.908 21.908 0 0 0-7.337-1.248z" fill="#CC2529"/><path fill-rule="evenodd" clip-rule="evenodd" d="m11.08 20.541-6.981-.763C2.045 22.081.654 24.856.179 27.886l4.579-2.478 6.322-4.867z" fill="#B92829"/><path fill-rule="evenodd" clip-rule="evenodd" d="M4.76 25.41.183 27.887a14.988 14.988 0 0 0 .038 4.887l4.54.072v-7.438z" fill="#A22828"/><path fill-rule="evenodd" clip-rule="evenodd" d="m4.762 32.845-4.54-.07c.655 3.78 2.738 7.152 5.752 9.684l1.508-1.404-2.72-8.21z" fill="#8E2A27"/><path fill-rule="evenodd" clip-rule="evenodd" d="M7.482 41.057 5.975 42.46c2.451 2.058 5.52 3.561 8.938 4.278l-7.43-5.682z" fill="#812926"/><path fill-rule="evenodd" clip-rule="evenodd" d="m7.48 41.058 7.431 5.682.898-7.88-1.757-7.879L7.48 41.058z" fill="#B92B29"/><path fill-rule="evenodd" clip-rule="evenodd" d="m7.477 41.058 6.572-10.077-9.292 1.867 2.72 8.21z" fill="#AA2927"/><path fill-rule="evenodd" clip-rule="evenodd" d="m14.05 30.98-9.293-5.57v7.436l9.292-1.867z" fill="#B12929"/><path fill-rule="evenodd" clip-rule="evenodd" d="m19.69 38.212-3.88.646-.898 7.88 4.778-8.526z" fill="#C92628"/><path fill-rule="evenodd" clip-rule="evenodd" d="m15.807 38.86 3.882-.646 1.644-2.935-7.282-4.298 1.756 7.88z" fill="#DA272A"/><path fill-rule="evenodd" clip-rule="evenodd" d="M26.474 26.104 14.051 30.98l7.282 4.298 5.141-9.174z" fill="#DF4647"/><path fill-rule="evenodd" clip-rule="evenodd" d="m11.082 20.543 2.97 10.437 12.422-4.876-15.392-5.561z" fill="#D83031"/><path fill-rule="evenodd" clip-rule="evenodd" d="m4.757 25.41 9.292 5.57-2.969-10.437-6.323 4.867z" fill="#CC2529"/><path fill-rule="evenodd" clip-rule="evenodd" d="m11.082 20.544 15.392 5.56-.972-7.811-14.42 2.25z" fill="#DE393A"/><path fill-rule="evenodd" clip-rule="evenodd" d="m11.076 20.543 14.42-2.251-8.924-4.886-5.496 7.136z" fill="#D32328"/><path d="M48.175 14.247c1.902 0 3.53.647 4.887 1.945 1.357 1.295 2.035 2.809 2.035 4.538 0 1.78-.669 3.312-2.007 4.59-1.338 1.28-2.976 1.919-4.915 1.919-1.92 0-3.548-.639-4.887-1.92-1.338-1.277-2.007-2.808-2.007-4.589 0-1.746.669-3.265 2.007-4.55 1.339-1.29 2.968-1.933 4.887-1.933zm0 2.106c-1.218 0-2.243.415-3.073 1.248-.83.829-1.246 1.865-1.246 3.104 0 1.222.415 2.258 1.246 3.104.83.85 1.855 1.273 3.073 1.273 1.219 0 2.252-.414 3.101-1.247.85-.83 1.274-1.874 1.274-3.13 0-1.24-.425-2.275-1.274-3.104-.849-.833-1.882-1.248-3.101-1.248zm9.22 16.316V21.674c0-1.032.037-1.82.111-2.36.074-.542.286-1.112.637-1.722a6.392 6.392 0 0 1 2.506-2.508c1.08-.608 2.284-.913 3.613-.913 1.975 0 3.614.613 4.915 1.84 1.301 1.226 1.952 2.787 1.952 4.681 0 1.81-.65 3.337-1.952 4.58-1.301 1.244-2.902 1.865-4.804 1.865a8.89 8.89 0 0 1-1.495-.114 7.77 7.77 0 0 1-1.246-.317l-.97-2.816c1.145.761 2.299 1.142 3.462 1.142 1.31 0 2.39-.398 3.24-1.193.849-.795 1.273-1.835 1.273-3.121 0-1.337-.41-2.407-1.232-3.21-.821-.804-1.888-1.205-3.198-1.205-1.274 0-2.321.401-3.143 1.205-.821.8-1.232 1.86-1.232 3.176v11.985h-2.436zm15.423-11.964c0-1.73.67-3.24 2.008-4.525 1.338-1.29 2.967-1.933 4.887-1.933 1.901 0 3.53.647 4.887 1.941 1.357 1.295 2.035 2.796 2.035 4.505l-.083.963H75.476c.222 1.024.72 1.849 1.495 2.479.776.63 1.69.947 2.742.947.812 0 1.518-.177 2.118-.529a5.019 5.019 0 0 0 1.537-1.4l1.8 1.557c-.536.681-1.237 1.252-2.105 1.713a7.069 7.069 0 0 1-3.35.816c-1.939 0-3.572-.639-4.901-1.92-1.33-1.277-1.994-2.816-1.994-4.614zm6.895-4.352c-1.015 0-1.92.313-2.714.939a4.16 4.16 0 0 0-1.523 2.436h8.5a4.034 4.034 0 0 0-1.494-2.436c-.794-.626-1.717-.939-2.77-.939zm9.248 10.633V20.16c0-1.844.535-3.29 1.606-4.34 1.07-1.049 2.473-1.573 4.208-1.573 1.754 0 3.157.516 4.21 1.548 1.051 1.032 1.577 2.487 1.577 4.365v6.826h-2.409v-7.233c0-1.014-.313-1.826-.941-2.436-.628-.608-1.44-.913-2.437-.913-.996 0-1.813.309-2.45.926-.637.618-.955 1.426-.955 2.424v7.232H88.96z" fill="#1EA243"/><path d="M48.988 46.586V31.532h3.143v15.054h-3.143zm19.539-11.143c1.237 0 2.177.323 2.822.97.645.649.966 1.672.966 3.077v7.096h-3.143V39.54c0-.602-.13-1.069-.389-1.394-.264-.33-.66-.494-1.195-.494-.45 0-.84.119-1.176.353-.336.235-.596.579-.783 1.024-.184.445-.279.977-.279 1.601v5.957h-3.142v-6.892c0-.642-.115-1.146-.348-1.504-.23-.36-.63-.54-1.195-.54-1.52 0-2.28.992-2.28 2.979v5.957h-3.142v-10.89h2.936v1.383h.023c.455-.546.97-.956 1.543-1.23.573-.27 1.245-.406 2.012-.406 1.489 0 2.574.575 3.25 1.72.5-.584 1.042-1.016 1.626-1.296a4.282 4.282 0 0 1 1.894-.424zm17.14 11.143h-3.1c-.156-.315-.282-.715-.378-1.202-1.054.97-2.283 1.454-3.696 1.454-.775 0-1.459-.136-2.047-.41-.592-.273-1.046-.658-1.367-1.156a3.05 3.05 0 0 1-.48-1.696c0-.967.343-1.73 1.03-2.298.688-.568 1.75-.957 3.184-1.16 1.433-.207 2.44-.403 3.025-.596v-.207c0-.638-.168-1.072-.508-1.31-.34-.235-.844-.354-1.508-.354-.523 0-.959.108-1.31.329-.351.218-.615.564-.794 1.037l-2.868-.4c.313-1.096.898-1.898 1.745-2.41.852-.508 1.99-.764 3.418-.764 1.153 0 2.096.137 2.825.406.726.27 1.268.702 1.616 1.29.35.589.526 1.356.526 2.31v4.446c0 .522.042.956.122 1.303.08.35.272.813.566 1.388zm-6.242-4.674c-1.123.206-1.684.704-1.684 1.5 0 .444.137.784.416 1.023.275.241.672.36 1.191.36.516 0 .99-.119 1.424-.36.298-.161.52-.337.669-.516.145-.182.248-.427.305-.735.062-.305.092-.736.092-1.29v-.526c-.554.186-1.36.368-2.413.544zm14.1-6.217v2.288h-2.221v5.306c0 .312.026.55.072.711.05.161.137.274.26.34.122.063.305.094.553.094.39 0 .802-.052 1.245-.16l.39 2.224a7.947 7.947 0 0 1-1.142.25c-.416.059-.84.09-1.264.09-.836 0-1.489-.105-1.959-.319a1.864 1.864 0 0 1-1-1.04c-.199-.484-.298-1.146-.298-1.994v-5.502h-1.672v-2.288h1.672v-1.994l3.143-2.042v4.036h2.222zm7.428 7.741h.042c.232-.754.389-1.244.469-1.468l2.284-6.273h3.253l-4.563 11.21c-.703 1.703-1.378 2.81-2.027 3.315-.665.522-1.597.78-2.796.78-.546 0-1.268-.09-2.16-.276l.526-2.207c.462.13.832.196 1.107.196.382 0 .692-.056.936-.165.24-.108.462-.315.665-.613.202-.298.412-.74.637-1.328L94.79 35.695h3.344l2.315 6.203c.141.367.309.879.504 1.538z" fill="#DA272A"/></g></g><defs><clipPath id="a"><path fill="#fff" d="M0 0h107v51H0z"/></clipPath></defs></svg>