<svg width="177" height="51" fill="none" xmlns="http://www.w3.org/2000/svg"><g clip-path="url(#a)"><path d="m19.982 45.77-.215-.16 7.064-9.85.215.161-7.064 9.85z" fill="#D61A3B"/><path d="M33.895 1.154 20.036 17.43c-.108.148-.323.161-.47.04a.348.348 0 0 1-.109-.335l2.14-10.533a.355.355 0 0 1 .188-.228L33.492.63a.328.328 0 0 1 .444.161c.067.121.04.255-.04.363zm-8.18 8.574 6.62-7.783-10.106 4.952-1.857 9.111 5.342-6.28z" fill="#319B87"/><path d="m12.756 8.225 6.284 7.69-.861-4.966-5.423-2.724zm6.566 9.098-8.073-9.89a.32.32 0 0 1-.054-.375.346.346 0 0 1 .458-.148l6.956 3.516c.108.04.175.134.202.255l1.104 6.374a.308.308 0 0 1-.122.322c-.134.12-.35.094-.47-.054z" fill="#319B87"/><path d="m19.632 17.51-6.297-2.91a.341.341 0 0 1-.189-.242l-1.978-7.059c-.04-.174.054-.362.243-.402.134-.04.269 0 .35.107l8.288 9.997c.108.148.095.362-.054.47a.306.306 0 0 1-.363.04zm-5.88-3.461 4.83 2.24-6.337-7.648 1.507 5.408z" fill="#319B87"/><path d="m21.206 16.075 6.54-3.556L32.24 3.1 21.206 16.075zm6.957-3.019-8.208 4.441c-.108.081-.27.068-.39-.026a.35.35 0 0 1-.04-.47L33.383.724a.33.33 0 0 1 .404-.094c.161.08.228.282.148.443L28.31 12.908a.39.39 0 0 1-.148.148z" fill="#319B87"/><path fill-rule="evenodd" clip-rule="evenodd" d="M21.933 7.608a.943.943 0 0 0 .942-.94c0-.51-.43-.939-.942-.939a.943.943 0 0 0-.942.94c0 .523.417.94.942.94zM18.475 11.674a.935.935 0 0 0 .942-.94.935.935 0 0 0-.942-.939.943.943 0 0 0-.942.94c0 .523.43.939.942.939zM24.53 12.586a.943.943 0 0 0 .942-.939c0-.523-.43-.94-.942-.94a.935.935 0 0 0-.942.94c0 .523.417.94.942.94zM11.491 8.158c.525 0 .942-.43.942-.94a.935.935 0 0 0-.942-.938.943.943 0 0 0-.942.939c0 .51.43.94.942.94zM13.47 15.23a.935.935 0 0 0 .941-.94.935.935 0 0 0-.942-.939.943.943 0 0 0-.942.94c0 .523.43.939.942.939zM28.002 13.7a.935.935 0 0 0 .941-.94c0-.51-.417-.938-.942-.938a.952.952 0 0 0-.941.939c0 .523.43.94.942.94zM33.64 1.878c.524 0 .942-.429.942-.939A.935.935 0 0 0 33.64 0a.935.935 0 0 0-.942.94c0 .51.417.94.942.94z" fill="#319B87"/><path d="M24.22 11.808 21.625 6.83l.605-.309 2.597 4.978-.605.309z" fill="#319B87"/><path fill-rule="evenodd" clip-rule="evenodd" d="M19.592 18.343a1.227 1.227 0 0 0 0-2.456c-.686 0-1.238.55-1.238 1.235 0 .67.552 1.22 1.238 1.22z" fill="#319B87"/><path d="m24.57 11.526 3.472 1.114-.08.255-3.472-1.114.08-.255zM13.389 14.183l5.005-3.556.162.215-5.006 3.556-.161-.215z" fill="#319B87"/><path d="m11.72 28.205 8.1-3.676.108.255-7.992 3.61-2.45 7.473-.255-.093 2.49-7.569z" fill="#D61A3B"/><path d="m9.365 46.039-.673-.014.323-10.211.673.013-.323 10.212z" fill="#D61A3B"/><path fill-rule="evenodd" clip-rule="evenodd" d="M30.141 20.476c.727 0 1.305-.59 1.305-1.301 0-.725-.578-1.302-1.305-1.302-.726 0-1.305.577-1.305 1.302 0 .711.579 1.301 1.305 1.301zM32.375 46.803c.753 0 1.359-.617 1.359-1.368 0-.752-.606-1.355-1.36-1.355-.753 0-1.358.603-1.358 1.355 0 .751.605 1.368 1.359 1.368zM24.96 49.997c.525 0 .942-.43.942-.94a.935.935 0 0 0-.942-.939.935.935 0 0 0-.941.94c0 .51.417.94.942.94zM9.029 46.978c.525 0 .942-.43.942-.94a.935.935 0 0 0-.942-.939.935.935 0 0 0-.942.94c0 .51.417.939.942.939zM9.352 37.478c.915 0 1.655-.738 1.655-1.664 0-.913-.74-1.65-1.655-1.65s-1.655.737-1.655 1.65c0 .926.74 1.664 1.655 1.664zM19.875 25.589a.943.943 0 0 0 .941-.94c0-.51-.43-.939-.941-.939a.943.943 0 0 0-.942.94c0 .523.417.939.942.939zM.942 29.306a.943.943 0 0 0 .942-.94c0-.51-.43-.939-.942-.939a.943.943 0 0 0-.942.94c0 .523.417.939.942.939zM26.939 38.135a2.305 2.305 0 0 0 2.3-2.294 2.305 2.305 0 0 0-2.3-2.295 2.305 2.305 0 0 0-2.301 2.295 2.305 2.305 0 0 0 2.3 2.294zM17.412 36.176a1.44 1.44 0 0 0 1.44-1.436 1.44 1.44 0 0 0-2.88 0 1.44 1.44 0 0 0 1.44 1.436zM11.828 29.239a.935.935 0 0 0 .942-.94.935.935 0 0 0-.942-.939.943.943 0 0 0-.942.94c0 .523.43.939.942.939zM14.6 49.85a.898.898 0 0 0 .901-.886.9.9 0 0 0-.901-.9.9.9 0 0 0-.902.9c0 .483.404.886.902.886zM38.807 30.674a2.194 2.194 0 0 0 0-4.387 2.194 2.194 0 1 0 0 4.387zM9.365 21.282c.74 0 1.332-.59 1.332-1.342 0-.738-.592-1.329-1.332-1.329-.753 0-1.345.59-1.345 1.329a1.33 1.33 0 0 0 1.345 1.341z" fill="#D61A3B"/><path d="M.336 28.635a.353.353 0 0 1-.04-.483.338.338 0 0 1 .471-.027l8.693 7.34 7.293-.98-5.18-5.97c-.122-.135-.095-.35.04-.47a.328.328 0 0 1 .47.04l5.585 6.427c.04.054.067.12.08.188.027.174-.107.349-.296.376l-8.046 1.073a.34.34 0 0 1-.27-.08l-8.8-7.434zM32.67 45.274a.347.347 0 0 1-.134.456.333.333 0 0 1-.457-.12l-5.436-9.608a.347.347 0 0 1 .134-.457.35.35 0 0 1 .458.134l5.436 9.595z" fill="#D61A3B"/><path d="M17.372 35.076a.354.354 0 0 1-.296-.376.344.344 0 0 1 .376-.295l9.406 1.087 12.15-7.407a.351.351 0 0 1 .472.12c.094.148.04.363-.121.457l-12.232 7.46a.344.344 0 0 1-.229.054l-9.526-1.1z" fill="#D61A3B"/><path d="M9.298 46.227a.343.343 0 0 1-.47.08.34.34 0 0 1-.068-.47l8.383-11.298a.34.34 0 0 1 .47-.067c.068.054.108.12.135.201l2.45 10.95a.336.336 0 0 1-.256.402c-.175.027-.364-.08-.39-.255L17.25 35.532 9.298 46.227zM25.391 48.467l6.715-3.274 6.687-16.746-8.437-8.588-3.081 16.035-1.884 12.573zm7.132-2.724-7.415 3.61a.324.324 0 0 1-.201.027.334.334 0 0 1-.283-.376c1.548-10.319 3.216-19.604 5.194-29.896 0-.067.04-.121.094-.175.121-.134.337-.12.471 0l9.043 9.205a.354.354 0 0 1 .08.363l-6.808 17.041a.366.366 0 0 1-.175.201z" fill="#D61A3B"/><path d="m30.397 19.39-12.73 15.565a.337.337 0 0 1-.47.04.362.362 0 0 1-.108-.349l2.462-10.064a.282.282 0 0 1 .175-.228L29.98 18.88a.334.334 0 0 1 .457.134c.067.12.04.268-.04.376zM18.084 33.385l10.738-13.123-8.665 4.616-2.073 8.507zM1.36 28.031l10.024-.067-2.315-7.77-7.71 7.837zm10.468.604-11.263.067c-.08.013-.175-.027-.242-.094a.324.324 0 0 1 0-.47l8.652-8.816a.464.464 0 0 1 .162-.093.34.34 0 0 1 .417.228l2.597 8.748c.013.027.013.054.013.094a.333.333 0 0 1-.336.336z" fill="#D61A3B"/><path d="M9.298 19.953.955 28.447l8.33 17.337 5.476 2.885 4.925-3.261a.348.348 0 0 1 .377.013l4.924 3.248 7.118-3.476 6.688-16.746-8.72-8.856-10.038 5.354a.36.36 0 0 1-.309.013L9.298 19.953zM.323 28.138l8.665-8.816a.326.326 0 0 1 .39-.067l10.483 5.032 10.105-5.407c.134-.067.31-.054.417.053l9.042 9.205a.354.354 0 0 1 .081.363l-6.809 17.041a.366.366 0 0 1-.174.201l-7.415 3.61a.338.338 0 0 1-.336-.027l-4.898-3.234-4.911 3.234a.335.335 0 0 1-.337.027l-5.745-3.02a.341.341 0 0 1-.148-.16L.255 28.54a.347.347 0 0 1 .068-.403z" fill="#D61A3B"/></g><path d="M60.577 14.12v-1.16h.524c.219 0 .399-.037.541-.11a.979.979 0 0 0 .354-.299c.093-.128.172-.267.234-.418l.124-.31-3.069-6.55h1.398l2.289 5.045 2.036-5.045h1.381l-3.017 7.214c-.128.29-.275.559-.443.806a1.874 1.874 0 0 1-.66.6c-.276.151-.641.226-1.096.226h-.596zm6.475-.12V7.455h5.34V14h-1.25V8.554h-2.85V14h-1.24zm7.043 2.454v-9h1.244v1.062h.107c.073-.137.18-.294.32-.473.138-.18.332-.336.579-.47.247-.136.574-.204.98-.204.528 0 1 .134 1.415.4.415.268.74.653.976 1.156.238.503.358 1.108.358 1.815 0 .707-.118 1.314-.354 1.82-.236.502-.56.89-.972 1.163-.412.27-.882.405-1.41.405-.398 0-.723-.067-.976-.2a1.847 1.847 0 0 1-.588-.47 3.544 3.544 0 0 1-.328-.476h-.077v3.473h-1.274zm1.248-5.727c0 .46.067.864.2 1.21.134.347.327.618.58.814.253.194.563.29.93.29.38 0 .698-.1.954-.302.255-.205.449-.482.58-.831.133-.35.2-.743.2-1.18 0-.432-.066-.82-.196-1.164a1.782 1.782 0 0 0-.58-.814c-.256-.199-.575-.298-.959-.298-.37 0-.682.095-.937.285-.253.19-.445.456-.576.797-.13.341-.196.739-.196 1.193zm8.063 3.418c-.415 0-.79-.077-1.125-.23a1.895 1.895 0 0 1-.797-.678c-.193-.295-.29-.658-.29-1.086 0-.37.071-.674.213-.912.142-.239.334-.428.576-.567.241-.14.511-.244.81-.316.298-.07.601-.124.911-.161l.955-.111c.244-.031.422-.081.532-.15.111-.068.167-.178.167-.332v-.03c0-.372-.106-.66-.316-.865-.207-.204-.517-.306-.929-.306-.429 0-.767.095-1.014.285-.244.188-.413.396-.507.627l-1.198-.273c.143-.398.35-.719.623-.963.275-.247.592-.426.95-.537a3.71 3.71 0 0 1 1.13-.17c.26 0 .538.03.83.093.296.06.571.17.827.332.258.162.47.394.635.695.165.298.247.686.247 1.163V14h-1.244v-.895h-.051a1.813 1.813 0 0 1-.371.486 1.97 1.97 0 0 1-.635.396 2.464 2.464 0 0 1-.93.158zm.277-1.023c.352 0 .653-.07.903-.209.253-.139.445-.32.576-.545.133-.227.2-.47.2-.729v-.843a.666.666 0 0 1-.264.127c-.128.037-.275.07-.44.098-.164.026-.325.05-.48.073l-.393.05a3.153 3.153 0 0 0-.677.159c-.202.073-.364.18-.486.32-.12.136-.18.317-.18.545 0 .315.117.554.35.716.233.159.53.238.89.238zm4.65.878V7.455h2.715c.738 0 1.323.157 1.755.473.432.312.648.737.648 1.274 0 .383-.122.687-.366.912-.245.224-.569.375-.972.451.293.034.561.123.805.264.245.14.44.327.588.563.151.236.226.517.226.844 0 .346-.09.653-.268.92a1.78 1.78 0 0 1-.78.622c-.338.148-.746.222-1.223.222h-3.128zm1.198-1.065h1.93c.315 0 .562-.076.741-.226a.76.76 0 0 0 .269-.614c0-.304-.09-.542-.269-.716-.179-.176-.426-.264-.741-.264h-1.93v1.82zm0-2.753h1.53c.238 0 .443-.034.613-.103a.865.865 0 0 0 .396-.29.743.743 0 0 0 .14-.45.679.679 0 0 0-.31-.593c-.208-.142-.492-.213-.852-.213H89.53v1.649zM94.614 14l-.004-1.104h.234a.841.841 0 0 0 .456-.115c.125-.08.228-.213.307-.4.08-.188.14-.446.183-.776.043-.332.074-.75.094-1.253L96 7.455h4.568V14h-1.248V8.554h-2.14l-.102 2.224a8.98 8.98 0 0 1-.166 1.415c-.082.404-.203.74-.362 1.01-.16.267-.364.468-.614.601-.25.13-.554.196-.912.196h-.409zm10.474.132c-.645 0-1.201-.138-1.666-.413a2.794 2.794 0 0 1-1.074-1.172c-.25-.506-.375-1.098-.375-1.777 0-.67.125-1.261.375-1.773a2.91 2.91 0 0 1 1.056-1.197c.455-.287.986-.43 1.594-.43.37 0 .727.06 1.074.183.347.122.658.313.933.575.276.261.493.6.652 1.018.159.415.239.92.239 1.513v.452h-5.203v-.955h3.954c0-.335-.068-.632-.204-.89a1.551 1.551 0 0 0-.575-.618 1.611 1.611 0 0 0-.861-.226c-.358 0-.671.088-.938.264-.264.173-.469.4-.613.682a1.969 1.969 0 0 0-.213.908v.745c0 .438.076.81.23 1.117.156.307.373.541.652.703.278.159.603.239.975.239.242 0 .462-.034.661-.103a1.37 1.37 0 0 0 .848-.831l1.206.218c-.097.355-.27.666-.52.933-.247.264-.558.47-.933.618a3.492 3.492 0 0 1-1.274.217zm8.658-3.954v1.103H110.2v-1.103h3.546zm-3.188-2.723V14h-1.248V7.455h1.248zm4.078 0V14h-1.244V7.455h1.244zm2.953 4.76 2.885-4.76h1.373V14h-1.249V9.236L117.726 14h-1.385V7.455h1.248v4.76zm8.792 1.917c-.645 0-1.201-.138-1.667-.413a2.798 2.798 0 0 1-1.073-1.172c-.25-.506-.375-1.098-.375-1.777 0-.67.125-1.261.375-1.773a2.91 2.91 0 0 1 1.056-1.197c.455-.287.986-.43 1.594-.43.37 0 .727.06 1.074.183.347.122.658.313.933.575.276.261.493.6.652 1.018.159.415.239.92.239 1.513v.452h-5.203v-.955h3.954c0-.335-.068-.632-.204-.89a1.551 1.551 0 0 0-.575-.618 1.611 1.611 0 0 0-.861-.226c-.358 0-.671.088-.938.264-.264.173-.469.4-.613.682a1.969 1.969 0 0 0-.213.908v.745c0 .438.076.81.23 1.117.156.307.373.541.652.703.278.159.603.239.975.239.242 0 .462-.034.661-.103a1.43 1.43 0 0 0 .516-.315c.144-.14.255-.311.332-.516l1.206.218c-.097.355-.27.666-.52.933-.247.264-.558.47-.933.618a3.492 3.492 0 0 1-1.274.217zM70.602 31.45l-.153 4.301h-1.75V33h-.818v-1.551h2.721zM60.278 33V21.364h1.682v10.113h5.614V21.364h1.687V33h-8.983zm13.779-2.38 3.846-6.347h1.83V33h-1.665v-6.352L74.238 33h-1.846v-8.727h1.665v6.346zm11.716 5.352V21.364h1.699v14.608h-1.7zm0-2.796c-.618 0-1.18-.106-1.688-.318a3.781 3.781 0 0 1-1.312-.92 4.17 4.17 0 0 1-.852-1.427 5.438 5.438 0 0 1-.296-1.835c0-.678.099-1.293.296-1.846a4.17 4.17 0 0 1 .852-1.427 3.78 3.78 0 0 1 1.312-.92 4.267 4.267 0 0 1 1.688-.324h.42v9.017h-.42zm0-1.432h.238v-6.153h-.238c-.41 0-.765.083-1.069.25a2.155 2.155 0 0 0-.755.676c-.2.284-.352.612-.455.983a4.569 4.569 0 0 0-.147 1.176c0 .553.089 1.063.267 1.529.178.462.447.835.806 1.119.36.28.811.42 1.353.42zm1.699 1.432h-.426V24.16h.426c.617 0 1.18.108 1.687.324.508.216.943.523 1.307.92a4.1 4.1 0 0 1 .847 1.427c.2.553.3 1.168.3 1.846 0 .67-.1 1.282-.3 1.835a4.1 4.1 0 0 1-.847 1.427c-.364.397-.8.704-1.307.92a4.336 4.336 0 0 1-1.687.318zm0-1.432c.409 0 .765-.08 1.068-.238.303-.163.555-.387.755-.67.201-.289.35-.616.45-.984.098-.37.147-.763.147-1.176 0-.55-.089-1.057-.267-1.523a2.521 2.521 0 0 0-.801-1.13c-.36-.288-.81-.432-1.352-.432h-.245v6.153h.245zm6.03 4.529v-12h1.659v1.415h.142c.098-.182.24-.392.426-.631.185-.239.443-.447.772-.625.33-.182.766-.273 1.307-.273.705 0 1.334.178 1.887.534.553.356.986.87 1.301 1.54.318.67.477 1.477.477 2.42 0 .944-.157 1.752-.472 2.427-.314.67-.746 1.187-1.295 1.55-.55.36-1.176.54-1.88.54-.531 0-.965-.089-1.302-.267a2.463 2.463 0 0 1-.784-.625 4.715 4.715 0 0 1-.437-.636H95.2v4.63h-1.699zm1.664-7.637c0 .614.09 1.152.267 1.614.178.462.436.824.773 1.085.337.258.75.387 1.239.387.507 0 .931-.135 1.272-.404.341-.273.599-.642.773-1.108.178-.466.267-.99.267-1.574 0-.575-.087-1.092-.261-1.55-.17-.46-.428-.82-.773-1.086-.34-.265-.767-.398-1.278-.398-.493 0-.91.127-1.25.381-.337.254-.593.608-.767 1.063-.175.454-.262.984-.262 1.59zm11.887 4.54c-.819 0-1.533-.187-2.142-.562a3.792 3.792 0 0 1-1.421-1.574c-.337-.674-.506-1.462-.506-2.364 0-.905.169-1.697.506-2.375a3.785 3.785 0 0 1 1.421-1.58c.609-.374 1.323-.562 2.142-.562.818 0 1.532.188 2.142.563a3.79 3.79 0 0 1 1.42 1.58c.337.677.506 1.469.506 2.374 0 .902-.169 1.69-.506 2.364a3.797 3.797 0 0 1-1.42 1.574c-.61.375-1.324.562-2.142.562zm.005-1.426c.531 0 .97-.14 1.318-.42.349-.28.606-.654.773-1.12.171-.466.256-.979.256-1.54 0-.556-.085-1.068-.256-1.534a2.498 2.498 0 0 0-.773-1.13c-.348-.284-.787-.427-1.318-.427-.534 0-.977.143-1.329.427a2.54 2.54 0 0 0-.779 1.13c-.166.466-.25.978-.25 1.535 0 .56.084 1.073.25 1.54.171.465.43.838.779 1.119.352.28.795.42 1.329.42zm5.959 1.25v-8.727h3.619c.985 0 1.766.21 2.341.63.576.417.864.983.864 1.7 0 .51-.163.916-.489 1.215-.325.3-.757.5-1.295.602.39.046.748.163 1.074.353.325.185.587.435.784.75.201.314.301.69.301 1.125 0 .462-.119.87-.358 1.227-.239.352-.585.629-1.04.83-.451.197-.994.295-1.63.295h-4.171zm1.597-1.42h2.574c.42 0 .75-.1.988-.302.239-.2.358-.473.358-.818 0-.405-.119-.723-.358-.954-.238-.235-.568-.353-.988-.353h-2.574v2.427zm0-3.67h2.039c.319 0 .591-.046.819-.137.231-.091.407-.22.528-.387a.991.991 0 0 0 .188-.602c0-.337-.139-.6-.415-.79-.277-.19-.656-.284-1.137-.284h-2.022v2.2zm9.13 2.71 3.847-6.347h1.829V33h-1.664v-6.352L123.926 33h-1.846v-8.727h1.664v6.346zm7.444.073h1.738c.023.356.184.63.483.824.303.193.695.29 1.176.29.489 0 .906-.104 1.25-.313.345-.212.517-.54.517-.983 0-.265-.066-.496-.199-.693a1.255 1.255 0 0 0-.551-.466 1.954 1.954 0 0 0-.835-.165h-1.42v-1.335h1.42c.481 0 .841-.11 1.08-.33.238-.219.358-.494.358-.823 0-.356-.129-.642-.387-.858-.254-.22-.608-.33-1.062-.33-.462 0-.847.105-1.154.313-.307.204-.468.47-.483.795h-1.716a2.13 2.13 0 0 1 .444-1.284c.287-.371.674-.659 1.159-.863.488-.209 1.043-.313 1.664-.313.648 0 1.209.104 1.682.313.474.208.839.496 1.097.863.261.368.392.79.392 1.267 0 .481-.144.875-.432 1.182-.284.303-.655.52-1.114.654v.09c.338.023.637.125.898.307.262.182.466.423.614.722.148.3.221.638.221 1.017 0 .534-.147.996-.443 1.386-.291.39-.697.691-1.216.904-.515.208-1.104.312-1.767.312-.644 0-1.221-.1-1.733-.301-.507-.205-.911-.492-1.21-.864a2.186 2.186 0 0 1-.471-1.318zm11.134 2.5a3.564 3.564 0 0 1-1.5-.307 2.524 2.524 0 0 1-1.062-.903c-.258-.394-.386-.877-.386-1.449 0-.492.094-.898.284-1.216.189-.318.445-.57.767-.756a4.013 4.013 0 0 1 1.079-.42c.398-.095.803-.167 1.216-.216l1.273-.148c.326-.041.562-.107.71-.198.148-.091.222-.24.222-.444v-.04c0-.496-.14-.88-.421-1.153-.276-.273-.689-.409-1.238-.409-.572 0-1.023.127-1.353.38-.325.25-.551.53-.676.836l-1.596-.364c.189-.53.466-.958.829-1.284a3.37 3.37 0 0 1 1.267-.716 4.942 4.942 0 0 1 1.506-.227c.348 0 .718.042 1.108.125.394.08.761.227 1.102.443.345.216.627.525.847.926.219.398.329.915.329 1.552V33h-1.659v-1.193h-.068c-.11.22-.275.435-.494.648-.22.212-.502.388-.847.528s-.757.21-1.239.21zm.37-1.363c.469 0 .871-.093 1.204-.279.337-.185.593-.428.767-.727.178-.303.267-.627.267-.972v-1.125c-.06.06-.178.118-.352.17-.17.05-.365.094-.585.131-.22.035-.434.067-.642.097-.208.026-.383.05-.523.068a4.2 4.2 0 0 0-.903.21c-.269.099-.485.24-.648.427-.159.181-.239.424-.239.727 0 .42.156.739.466.954.311.213.707.319 1.188.319zm13.319-7.557v7.335h1.279v4.204h-1.676V33h-6.722v-8.727h1.665v7.261h3.795v-7.261h1.659zm4.827 6.346 3.847-6.346h1.829V33h-1.665v-6.352L161.02 33h-1.847v-8.727h1.665v6.346zm9.625 0 3.847-6.346h1.829V33h-1.665v-6.352L170.645 33h-1.847v-8.727h1.665v6.346zM64.041 41.455v1.099h-2.927V48h-1.258v-6.545h4.185zm3.8 6.677c-.614 0-1.15-.14-1.607-.422a2.845 2.845 0 0 1-1.066-1.18c-.253-.506-.379-1.097-.379-1.773 0-.679.126-1.273.38-1.781a2.839 2.839 0 0 1 1.065-1.185c.457-.281.993-.422 1.606-.422.614 0 1.15.14 1.607.422.457.281.812.676 1.065 1.185.253.508.38 1.102.38 1.781 0 .676-.127 1.267-.38 1.773-.253.505-.608.899-1.065 1.18-.458.282-.993.422-1.607.422zm.004-1.07c.397 0 .727-.105.988-.315.261-.21.455-.49.58-.84.127-.349.191-.734.191-1.154 0-.418-.064-.801-.191-1.15a1.874 1.874 0 0 0-.58-.849c-.261-.213-.59-.32-.989-.32-.4 0-.732.107-.997.32a1.903 1.903 0 0 0-.584.848c-.125.35-.187.733-.187 1.15 0 .421.063.806.188 1.156.127.35.322.629.583.84.265.21.597.315.998.315zm4.469 3.393v-9h1.244v1.06h.106a3.57 3.57 0 0 1 .32-.472c.14-.18.332-.336.58-.47.247-.136.573-.204.98-.204.528 0 1 .134 1.415.4.414.268.74.653.975 1.156.239.503.358 1.108.358 1.815 0 .707-.118 1.314-.353 1.82-.236.502-.56.89-.972 1.163-.412.27-.882.405-1.41.405-.398 0-.724-.067-.976-.2a1.848 1.848 0 0 1-.588-.47 3.553 3.553 0 0 1-.329-.477h-.076v3.474h-1.274zm1.248-5.728c0 .46.067.864.2 1.21.134.347.327.618.58.814.253.194.563.29.929.29.38 0 .699-.1.954-.302.256-.205.45-.482.58-.831.134-.35.2-.743.2-1.18 0-.433-.065-.82-.196-1.164a1.781 1.781 0 0 0-.58-.814c-.255-.199-.575-.298-.958-.298-.37 0-.682.095-.938.285-.252.19-.444.456-.575.797-.13.341-.196.739-.196 1.193zm8.915 3.405c-.614 0-1.15-.14-1.607-.422a2.845 2.845 0 0 1-1.065-1.18c-.253-.506-.38-1.097-.38-1.773 0-.679.127-1.273.38-1.781a2.839 2.839 0 0 1 1.065-1.185c.458-.281.993-.422 1.607-.422s1.15.14 1.606.422c.458.281.813.676 1.066 1.185.253.508.38 1.102.38 1.781 0 .676-.127 1.267-.38 1.773-.253.505-.608.899-1.066 1.18-.457.282-.992.422-1.606.422zm.004-1.07c.398 0 .728-.105.989-.315.261-.21.454-.49.58-.84a3.34 3.34 0 0 0 .191-1.154c0-.418-.064-.801-.192-1.15a1.874 1.874 0 0 0-.58-.849c-.26-.213-.59-.32-.988-.32-.4 0-.733.107-.997.32a1.905 1.905 0 0 0-.584.848c-.125.35-.187.733-.187 1.15 0 .421.062.806.187 1.156.128.35.323.629.584.84.264.21.597.315.997.315zm3.83 2.826v-2.992h.533c.136-.125.251-.274.345-.447.097-.173.178-.38.243-.618.068-.239.125-.517.17-.835.046-.321.085-.688.12-1.1l.204-2.441h4.449v5.441h1.006v2.992h-1.245V48h-4.564v1.888h-1.26zm1.896-2.992h2.924v-4.35h-2.063l-.136 1.35a18.468 18.468 0 0 1-.247 1.79c-.1.503-.259.906-.478 1.21zm8.324 1.249c-.415 0-.79-.077-1.125-.23a1.895 1.895 0 0 1-.797-.678c-.193-.295-.29-.657-.29-1.086 0-.37.071-.674.213-.912.142-.239.334-.428.576-.567.241-.14.511-.244.81-.316.298-.07.601-.125.911-.161l.955-.111c.244-.031.422-.081.532-.15.111-.067.167-.178.167-.332v-.03c0-.372-.106-.66-.316-.865-.207-.204-.517-.306-.929-.306-.429 0-.767.095-1.014.285-.244.188-.413.396-.507.627l-1.198-.273c.143-.398.35-.719.623-.963.275-.247.592-.426.95-.537.358-.114.734-.17 1.13-.17.26 0 .538.03.83.093.296.06.571.17.827.332.258.162.47.394.635.695.165.298.247.686.247 1.163V48h-1.244v-.895h-.051a1.813 1.813 0 0 1-.371.486 1.97 1.97 0 0 1-.635.396 2.464 2.464 0 0 1-.93.158zm.277-1.023c.352 0 .653-.07.903-.209.253-.139.445-.32.576-.545.133-.227.2-.47.2-.729v-.844a.666.666 0 0 1-.264.128c-.128.037-.275.07-.44.098-.164.026-.325.05-.48.073l-.393.05a3.153 3.153 0 0 0-.677.159c-.202.073-.364.18-.486.32-.12.136-.18.317-.18.545 0 .315.117.554.35.715.233.16.53.24.89.24zm8.665.878h-1.397l3.14-8.727h1.522l3.14 8.727h-1.398l-2.467-7.142h-.068L105.473 48zm.235-3.418h4.534v1.108h-4.534v-1.108zM112.521 48l-.005-1.104h.235a.84.84 0 0 0 .456-.115c.125-.08.227-.213.306-.4.08-.188.141-.446.184-.776.042-.332.074-.75.093-1.253l.116-2.897h4.568V48h-1.249v-5.446h-2.139l-.102 2.224a8.925 8.925 0 0 1-.167 1.415 3.27 3.27 0 0 1-.362 1.01 1.573 1.573 0 0 1-.613.601c-.25.13-.554.196-.912.196h-.409zm11.325-1.577 2.114-4.968h1.099L124.319 48h-.946l-2.684-6.545h1.086l2.071 4.968zm-2.424-4.968V48h-1.249v-6.545h1.249zM126.305 48v-6.545h1.24V48h-1.24zm4.843.145c-.415 0-.79-.077-1.125-.23a1.897 1.897 0 0 1-.797-.678c-.193-.295-.29-.657-.29-1.086 0-.37.071-.674.214-.912.142-.239.333-.428.575-.567a3 3 0 0 1 .809-.316c.299-.07.603-.125.912-.161l.955-.111c.244-.031.422-.081.533-.15.11-.067.166-.178.166-.332v-.03c0-.372-.105-.66-.316-.865-.207-.204-.517-.306-.929-.306-.429 0-.767.095-1.014.285a1.532 1.532 0 0 0-.507.627l-1.197-.273a2.3 2.3 0 0 1 .622-.963c.275-.247.592-.426.95-.537a3.71 3.71 0 0 1 1.129-.17c.262 0 .539.03.831.093.296.06.571.17.827.332.259.162.47.394.635.695.165.298.247.686.247 1.163V48h-1.244v-.895h-.051a1.822 1.822 0 0 1-.371.486c-.165.159-.376.291-.635.396a2.46 2.46 0 0 1-.929.158zm.277-1.023c.352 0 .653-.07.903-.209.253-.139.445-.32.576-.545.133-.227.2-.47.2-.729v-.844c-.045.046-.133.088-.264.128-.128.037-.274.07-.439.098l-.482.073-.392.05a3.143 3.143 0 0 0-.677.159 1.16 1.16 0 0 0-.486.32c-.119.136-.179.317-.179.545 0 .315.116.554.349.715.233.16.53.24.891.24zm3.838-4.568v-1.1h5.523v1.1h-2.135V48h-1.244v-5.446h-2.144zm7.83 1.15h1.9c.801 0 1.418.2 1.85.597.432.398.647.91.647 1.538 0 .41-.096.778-.289 1.104a2.035 2.035 0 0 1-.848.776c-.373.187-.826.281-1.36.281h-2.859v-6.545h1.248V46.9h1.611c.367 0 .668-.096.904-.286a.914.914 0 0 0 .353-.737.964.964 0 0 0-.353-.772c-.236-.201-.537-.302-.904-.302h-1.9v-1.1zM148.419 48v-6.545h1.275V48h-1.275z" fill="#fff"/><defs><clipPath id="a"><path fill="#fff" d="M0 0h41v50H0z"/></clipPath></defs></svg>